<svg width="16" height="17" viewBox="0 0 16 17" fill="none" xmlns="http://www.w3.org/2000/svg">
<g clip-path="url(#clip0_99_16)">
<path d="M1.16667 15.8333H2.83333C3.47667 15.8333 4 15.3099 4 14.6666V6.99992C4 6.35659 3.47667 5.83325 2.83333 5.83325H1.16667C0.523333 5.83325 0 6.35659 0 6.99992V14.6666C0 15.3099 0.523333 15.8333 1.16667 15.8333Z" fill="white"/>
<path d="M8.52067 1C7.854 1 7.52067 1.33333 7.52067 3C7.52067 4.584 5.98667 5.85867 5 6.51533V14.774C6.06733 15.268 8.204 16 11.5207 16H12.5873C13.8873 16 14.994 15.0667 15.214 13.7867L15.9607 9.45333C16.2407 7.82 14.9873 6.33333 13.334 6.33333H10.1873C10.1873 6.33333 10.6873 5.33333 10.6873 3.66667C10.6873 1.66667 9.18733 1 8.52067 1Z" fill="white"/>
</g>
<defs>
<clipPath id="clip0_99_16">
<rect width="16" height="16" fill="white" transform="translate(0 0.5)"/>
</clipPath>
</defs>
</svg>
