<svg width="16" height="17" viewBox="0 0 16 17" fill="none" xmlns="http://www.w3.org/2000/svg">
<path d="M2.66665 13.8334C2.29998 13.8334 1.98598 13.7027 1.72465 13.4414C1.46331 13.1801 1.33287 12.8663 1.33331 12.5001V4.50008C1.33331 4.13342 1.46398 3.81942 1.72531 3.55808C1.98665 3.29675 2.30043 3.1663 2.66665 3.16675H13.3333C13.7 3.16675 14.014 3.29742 14.2753 3.55875C14.5366 3.82008 14.6671 4.13386 14.6666 4.50008V12.5001C14.6666 12.8667 14.536 13.1807 14.2746 13.4421C14.0133 13.7034 13.6995 13.8339 13.3333 13.8334H2.66665ZM2.66665 12.5001H9.66665V10.1667H2.66665V12.5001ZM11 12.5001H13.3333V6.50008H11V12.5001ZM2.66665 8.83342H9.66665V6.50008H2.66665V8.83342Z" fill="white"/>
</svg>
