<svg width="16" height="17" viewBox="0 0 16 17" fill="none" xmlns="http://www.w3.org/2000/svg">
<path d="M9.33331 10.4999C9.5222 10.4999 9.6862 10.4304 9.82531 10.2913C9.96443 10.1521 10.0338 9.98836 10.0333 9.79992C10.0333 9.61103 9.96376 9.44725 9.82465 9.30859C9.68554 9.16992 9.52176 9.10036 9.33331 9.09992C9.14443 9.09992 8.98043 9.16948 8.84131 9.30859C8.7022 9.4477 8.63287 9.61148 8.63331 9.79992C8.63331 9.98881 8.70287 10.1528 8.84198 10.2919C8.98109 10.431 9.14487 10.5004 9.33331 10.4999ZM8.83331 8.36659H9.83331C9.83331 8.04436 9.86665 7.80814 9.93331 7.65792C9.99998 7.5077 10.1555 7.31059 10.4 7.06659C10.7333 6.73325 10.9555 6.46392 11.0666 6.25859C11.1778 6.05325 11.2333 5.81148 11.2333 5.53325C11.2333 5.03325 11.0582 4.62503 10.708 4.30859C10.3578 3.99214 9.89954 3.8337 9.33331 3.83325C8.87776 3.83325 8.48043 3.96103 8.14131 4.21659C7.8022 4.47214 7.5662 4.81103 7.43331 5.23325L8.33331 5.59992C8.43331 5.32214 8.56954 5.1137 8.74198 4.97459C8.91443 4.83548 9.11154 4.76614 9.33331 4.76659C9.59998 4.76659 9.81665 4.8417 9.98331 4.99192C10.15 5.14214 10.2333 5.34481 10.2333 5.59992C10.2333 5.75548 10.1889 5.90281 10.1 6.04192C10.0111 6.18103 9.85554 6.35592 9.63331 6.56659C9.26665 6.88881 9.04176 7.14148 8.95865 7.32459C8.87554 7.5077 8.83376 7.85503 8.83331 8.36659ZM5.33331 12.4999C4.96665 12.4999 4.65265 12.3693 4.39131 12.1079C4.12998 11.8466 3.99954 11.5328 3.99998 11.1666V3.16659C3.99998 2.79992 4.13065 2.48592 4.39198 2.22459C4.65331 1.96325 4.96709 1.83281 5.33331 1.83325H13.3333C13.7 1.83325 14.014 1.96392 14.2753 2.22525C14.5366 2.48659 14.6671 2.80036 14.6666 3.16659V11.1666C14.6666 11.5333 14.536 11.8473 14.2746 12.1086C14.0133 12.3699 13.6995 12.5004 13.3333 12.4999H5.33331ZM2.66665 15.1666C2.29998 15.1666 1.98598 15.0359 1.72465 14.7746C1.46331 14.5133 1.33287 14.1995 1.33331 13.8333V4.49992H2.66665V13.8333H12V15.1666H2.66665Z" fill="white"/>
</svg>
