<svg width="16" height="17" viewBox="0 0 16 17" fill="none" xmlns="http://www.w3.org/2000/svg">
<path d="M8.00782 6.60308C7.54063 6.60308 7.10313 6.78433 6.77188 7.11558C6.4422 7.44683 6.25938 7.88433 6.25938 8.35151C6.25938 8.8187 6.4422 9.2562 6.77188 9.58745C7.10313 9.91714 7.54063 10.1 8.00782 10.1C8.47501 10.1 8.91251 9.91714 9.24376 9.58745C9.57345 9.2562 9.75626 8.8187 9.75626 8.35151C9.75626 7.88433 9.57345 7.44683 9.24376 7.11558C9.08197 6.95254 8.88939 6.82328 8.67722 6.7353C8.46505 6.64732 8.23751 6.60237 8.00782 6.60308ZM14.45 10.2828L13.4281 9.40933C13.4766 9.11245 13.5016 8.80933 13.5016 8.50776C13.5016 8.2062 13.4766 7.90151 13.4281 7.6062L14.45 6.73276C14.5272 6.66668 14.5825 6.57866 14.6084 6.48042C14.6344 6.38217 14.6298 6.27835 14.5953 6.18276L14.5813 6.14214C14.3 5.35572 13.8786 4.62676 13.3375 3.99058L13.3094 3.95776C13.2437 3.8805 13.1561 3.82496 13.0582 3.79846C12.9603 3.77197 12.8567 3.77575 12.7609 3.80933L11.4922 4.26089C11.0234 3.87651 10.5016 3.57339 9.93595 3.36245L9.69063 2.03589C9.67213 1.93595 9.62365 1.84402 9.55164 1.77229C9.47964 1.70057 9.38751 1.65245 9.28751 1.63433L9.24532 1.62651C8.43282 1.47964 7.57657 1.47964 6.76407 1.62651L6.72188 1.63433C6.62188 1.65245 6.52975 1.70057 6.45775 1.77229C6.38574 1.84402 6.33727 1.93595 6.31876 2.03589L6.07188 3.3687C5.51161 3.58132 4.98969 3.88371 4.52657 4.26401L3.24845 3.80933C3.15277 3.77549 3.04906 3.77156 2.95109 3.79808C2.85313 3.82459 2.76556 3.88029 2.70001 3.95776L2.67188 3.99058C2.13171 4.62744 1.71043 5.35621 1.42813 6.14214L1.41407 6.18276C1.34376 6.37808 1.40157 6.59683 1.55938 6.73276L2.59376 7.61558C2.54532 7.90933 2.52188 8.20933 2.52188 8.5062C2.52188 8.8062 2.54532 9.1062 2.59376 9.39683L1.56251 10.2796C1.48531 10.3457 1.43006 10.4337 1.40411 10.532C1.37815 10.6302 1.38272 10.7341 1.4172 10.8296L1.43126 10.8703C1.71407 11.6562 2.13126 12.3828 2.67501 13.0218L2.70313 13.0546C2.76884 13.1319 2.85642 13.1874 2.95432 13.2139C3.05223 13.2404 3.15586 13.2367 3.25157 13.2031L4.5297 12.7484C4.99532 13.1312 5.51407 13.4343 6.07501 13.6437L6.32188 14.9765C6.34039 15.0764 6.38887 15.1684 6.46087 15.2401C6.53288 15.3118 6.625 15.36 6.72501 15.3781L6.7672 15.3859C7.58769 15.5336 8.42795 15.5336 9.24845 15.3859L9.29063 15.3781C9.39064 15.36 9.48276 15.3118 9.55477 15.2401C9.62677 15.1684 9.67525 15.0764 9.69376 14.9765L9.93907 13.65C10.5047 13.4375 11.0266 13.1359 11.4953 12.7515L12.7641 13.2031C12.8598 13.2369 12.9635 13.2408 13.0614 13.2143C13.1594 13.1878 13.247 13.1321 13.3125 13.0546L13.3406 13.0218C13.8844 12.3796 14.3016 11.6562 14.5844 10.8703L14.5984 10.8296C14.6656 10.6359 14.6078 10.4187 14.45 10.2828ZM8.00782 11.0984C6.49063 11.0984 5.26095 9.8687 5.26095 8.35151C5.26095 6.83433 6.49063 5.60464 8.00782 5.60464C9.52501 5.60464 10.7547 6.83433 10.7547 8.35151C10.7547 9.8687 9.52501 11.0984 8.00782 11.0984Z" fill="white"/>
</svg>
